<?xml version="1.0" standalone="no"?><!DOCTYPE svg PUBLIC "-//W3C//DTD SVG 1.1//EN" "http://www.w3.org/Graphics/SVG/1.1/DTD/svg11.dtd"><svg t="1693123376756" class="icon" viewBox="0 0 1025 1024" version="1.1" xmlns="http://www.w3.org/2000/svg" p-id="6042" xmlns:xlink="http://www.w3.org/1999/xlink" width="200.1953125" height="200"><path d="M903.526 542.788c-11.476-109.267-69.113-209.266-157.91-273.966 1.775-42.203-8.091-85.392-30.916-124.607C651.078 34.909 510.893-2.126 401.587 61.495c-75.837 44.141-116.869 125.136-113.649 207.104-69.606 50.492-123.007 124.277-147.063 213.792a391.809 391.809 0 0 0-11.196 59.809c-37.458 19.563-69.947 49.713-92.506 89.106-62.851 109.751-24.832 249.672 84.919 312.523 76.13 43.597 166.769 38.645 236.139-5.102a391.907 391.907 0 0 0 57.362 20.29c89.516 24.056 180.13 14.833 258.713-20.088 35.68 22.675 78.051 35.746 123.464 35.587 126.472-0.444 228.638-103.331 228.194-229.803-0.31-87.709-49.894-163.714-122.438-201.925zM343.497 234.956c7.264-51.226 37.068-98.744 85.254-126.791 83.531-48.619 190.659-20.317 239.278 63.214 11.79 20.256 19.044 41.901 22.096 63.762a175.057 175.057 0 0 1-2.102 60.33c-9.855 46.729-38.683 89.27-83.209 115.186-83.531 48.619-190.659 20.317-239.278-63.214-9.688-16.645-16.312-34.228-20.063-52.097a174.622 174.622 0 0 1-1.976-60.39z m9.101 640.606a174.59 174.59 0 0 1-51.354 31.888c-47.97 19.273-103.973 17.204-152.318-10.482-83.87-48.03-112.925-154.957-64.894-238.828 11.641-20.328 26.749-37.424 44.142-50.994a175.094 175.094 0 0 1 53.336-28.371c45.394-14.826 96.646-11.13 141.349 14.471 83.871 48.031 112.925 154.957 64.894 238.828-9.586 16.742-21.526 31.292-35.155 43.488z m77.009 31.305a339.803 339.803 0 0 1-24.38-7.545 229.776 229.776 0 0 0 29.388-40.412c62.851-109.751 24.832-249.672-84.919-312.523-51.188-29.314-108.937-36.677-162.371-25.063a339.779 339.779 0 0 1 5.7-24.919c18.21-67.764 55.959-125.048 105.538-167.454a229.77 229.77 0 0 0 20.304 45.656c63.621 109.306 203.806 146.341 313.112 82.72 51.001-29.685 86.26-76.04 102.911-128.148 57.693 49.633 96.988 117.799 111.025 192.597a229.761 229.761 0 0 0-49.756-5.258c-126.472 0.444-228.638 103.331-228.194 229.803 0.207 58.987 22.705 112.68 59.48 153.148-61.556 21.657-130.06 25.612-197.838 7.398z m367.972 13.649c-23.467 0.082-45.866-4.47-66.346-12.777a175.093 175.093 0 0 1-51.198-32.023c-35.495-31.897-57.89-78.104-58.07-129.584-0.34-96.649 77.735-175.274 174.384-175.614 19.296-0.068 37.87 2.998 55.249 8.705a174.572 174.572 0 0 1 53.254 28.504c40.693 31.906 66.915 81.451 67.111 137.175 0.34 96.649-77.735 175.274-174.384 175.614z" p-id="6043"></path></svg>